<?xml version="1.0" encoding="UTF-8" standalone="no"?>
<svg
   inkscape:version="1.3.2 (091e20e, 2023-11-25)"
   sodipodi:docname="delete.svg"
   viewBox="0 0 16 16"
   height="16"
   width="16"
   id="svg1"
   version="1.1"
   xmlns:inkscape="http://www.inkscape.org/namespaces/inkscape"
   xmlns:sodipodi="http://sodipodi.sourceforge.net/DTD/sodipodi-0.dtd"
   xmlns="http://www.w3.org/2000/svg"
   xmlns:svg="http://www.w3.org/2000/svg"
   xmlns:rdf="http://www.w3.org/1999/02/22-rdf-syntax-ns#"
   xmlns:cc="http://creativecommons.org/ns#"
   xmlns:dc="http://purl.org/dc/elements/1.1/">
  <style
     id="s0">
.success { fill:#009909; }
.warning { fill:#FF1990; }
.error { fill:#00AAFF; }
</style>
  <style
     id="s2">
@import '../../highlights.css';
</style>
  <metadata
     id="metadata21">
    <rdf:RDF>
      <cc:Work
         rdf:about="">
        <dc:format>image/svg+xml</dc:format>
        <dc:type
           rdf:resource="http://purl.org/dc/dcmitype/StillImage" />
      </cc:Work>
    </rdf:RDF>
  </metadata>
  <defs
     id="defs19">
    <inkscape:path-effect
       effect="fillet_chamfer"
       id="path-effect2406"
       is_visible="true"
       lpeversion="1"
       nodesatellites_param="F,0,0,1,0,0,0,1 @ F,0,0,1,0,1,0,1 @ F,0,0,1,0,1.2147468,0,1 @ F,0,0,1,0,0,0,1"
       unit="px"
       method="auto"
       mode="F"
       radius="0"
       chamfer_steps="1"
       flexible="false"
       use_knot_distance="true"
       apply_no_radius="true"
       apply_with_radius="true"
       only_selected="false"
       hide_knots="false" />
    <inkscape:path-effect
       effect="join_type"
       id="path-effect2400"
       is_visible="true"
       lpeversion="1"
       linecap_type="round"
       line_width="1"
       linejoin_type="extrp_arc"
       miter_limit="100"
       attempt_force_join="true" />
    <inkscape:path-effect
       effect="join_type"
       id="path-effect20976"
       is_visible="true"
       lpeversion="1"
       linecap_type="butt"
       line_width="1"
       linejoin_type="extrp_arc"
       miter_limit="100"
       attempt_force_join="true" />
    <inkscape:path-effect
       effect="fillet_chamfer"
       id="path-effect13041"
       is_visible="true"
       lpeversion="1"
       nodesatellites_param="F,0,1,1,0,0,0,1 @ F,0,0,1,0,1,0,1 @ F,0,0,1,0,1,0,1 @ F,0,0,1,0,0,0,1"
       unit="px"
       method="auto"
       mode="F"
       radius="0"
       chamfer_steps="1"
       flexible="false"
       use_knot_distance="true"
       apply_no_radius="true"
       apply_with_radius="true"
       only_selected="false"
       hide_knots="false" />
    <inkscape:path-effect
       effect="fillet_chamfer"
       id="path-effect11713"
       is_visible="true"
       lpeversion="1"
       nodesatellites_param="F,0,0,1,0,0,0,1 @ F,0,1,1,0,1,0,1 @ F,0,0,1,0,1,0,1 @ F,0,0,1,0,0,0,1"
       unit="px"
       method="auto"
       mode="F"
       radius="0"
       chamfer_steps="1"
       flexible="false"
       use_knot_distance="true"
       apply_no_radius="true"
       apply_with_radius="true"
       only_selected="false"
       hide_knots="false" />
  </defs>
  <sodipodi:namedview
     inkscape:document-rotation="0"
     inkscape:current-layer="edit-delete"
     inkscape:window-maximized="0"
     inkscape:window-y="25"
     inkscape:window-x="0"
     inkscape:window-height="1212"
     inkscape:window-width="1392"
     inkscape:cy="9.6633663"
     inkscape:cx="-3.390099"
     inkscape:zoom="15.78125"
     showgrid="false"
     id="namedview"
     guidetolerance="10"
     gridtolerance="10"
     objecttolerance="10"
     pagecolor="#ffffff"
     bordercolor="#000000"
     borderopacity="0.25"
     inkscape:pageshadow="2"
     inkscape:pageopacity="0.0"
     inkscape:pagecheckerboard="0"
     inkscape:deskcolor="#d1d1d1"
     inkscape:showpageshadow="2">
    <inkscape:grid
       id="grid"
       type="xygrid"
       originx="0"
       originy="0"
       spacingy="1"
       spacingx="1"
       units="px"
       visible="false" />
  </sodipodi:namedview>
  <g
     inkscape:label="00384"
     id="edit-delete"
     inkscape:groupmode="layer">
    <title
       id="title34114">edit-delete</title>
    <path
       style="opacity:0;fill:none"
       d="M 0,0 H 16 V 16 H 0 Z"
       id="gtk-remove"
       inkscape:connector-curvature="0" />
    <path
       id="bod"
       style="fill:#5b915b;stroke:none;stroke-width:1.77121;paint-order:stroke fill markers;fill-opacity:1"
       class="UnoptimicedTransforms"
       d="M 2.7031352,3.7430692 3.6891377,14.584865 c 0.05535,0.608616 0.5653051,1.07487 1.1764324,1.07487 h 6.5084629 c 0.611128,0 1.121082,-0.466254 1.176433,-1.07487 L 13.536468,3.7430692 Z m 2.7739257,2.084147 c 0.2496535,0.038973 0.4399296,0.2451353 0.4570313,0.4972331 l 0.4168294,6.1445317 c 0.0489,0.720843 -1.0323173,0.794899 -1.0812175,0.07406 L 4.8528747,6.3985053 C 4.8293716,6.0520427 5.1339576,5.7736546 5.4770609,5.8272162 Z m 5.2854811,0 c 0.343104,-0.053561 0.64769,0.2248264 0.624187,0.5712891 l -0.41683,6.1445307 c -0.0489,0.720844 -1.1301173,0.646788 -1.0812171,-0.07406 0,0 0.2778861,-4.0963545 0.4168291,-6.1445318 0.01711,-0.2520978 0.207378,-0.4582598 0.457031,-0.4972331 z m -2.7633457,0.00635 c 0.3394645,-0.077531 0.6622721,0.1807651 0.6622721,0.5289707 v 6.1445321 c 0,0.722221 -1.0833333,0.722221 -1.0833333,0 V 6.3625353 c 0,-0.2530261 0.1743866,-0.4726339 0.4210612,-0.5289707 z"
       sodipodi:nodetypes="cssssccssssssssssssssssss" />
    <path
       style="fill:#5b915b;stroke:none;stroke-width:1.63496;paint-order:stroke fill markers;fill-opacity:1"
       d="M 2,5 V 4 A 1,1 135 0 1 3,3 h 10 a 1,1 45 0 1 1,1 v 1 z"
       id="top"
       sodipodi:nodetypes="ccccc"
       inkscape:path-effect="#path-effect13041"
       inkscape:original-d="M 2,5 V 3 h 12 v 2 z"
       transform="matrix(1.0833333,0,0,1.0833333,-0.54686469,-0.59026402)" />
    <path
       style="fill:#5b915b;fill-rule:nonzero;stroke:none;stroke-width:0.219334;paint-order:stroke fill markers;fill-opacity:1"
       d="M 6,2.5 C 6,2.2263797 6.2263797,2 6.5,2 h 3 C 9.7736203,2 10,2.2263797 10,2.5 V 4 l 0.5,-0.5 h -5 L 6,4 Z m 5,2 v -2 C 11,1.6690508 10.330949,1 9.5,1 l -3,0 C 5.6690508,1 5,1.6690508 5,2.5 v 2 z"
       id="handel"
       sodipodi:nodetypes="ccccc"
       inkscape:path-effect="#path-effect11713;#path-effect20976"
       inkscape:original-d="M 5.5,4 V 1.5 h 5 V 4 Z"
       inkscape:linked-fill="path20980"
       class="UnoptimicedTransforms"
       transform="matrix(1.0833333,0,0,1.0833333,-0.54686469,-0.59026402)" />
    <g
       id="g2410"
       inkscape:label="non dest"
       style="display:none"
       sodipodi:insensitive="true">
      <path
         id="path2396"
         style="display:inline;fill:#ffffff;fill-rule:nonzero;stroke:none;stroke-width:1;paint-order:stroke fill markers"
         class="UnoptimicedTransforms"
         d="M 10.018116,6.3836979 9.6336547,12.055605 a 0.5,0.5 0 1 0 0.9977103,0.06763 l 0.384461,-5.6719069 a 0.5,0.5 0 1 0 -0.99771,-0.067628 z M 4.9841739,6.4513261 5.368635,12.123233 a 0.5,0.5 0 1 0 0.9977106,-0.06763 L 5.9818845,6.3836979 A 0.5,0.5 0 1 0 4.9841739,6.4513261 Z M 7.5,6.417512 v 5.671907 a 0.5,0.5 0 1 0 1,0 V 6.417512 a 0.5,0.5 0 1 0 -1,0 z"
         inkscape:linked-fill="inside"
         sodipodi:nodetypes="cccccc"
         inkscape:path-effect="#path-effect2400"
         inkscape:original-d="m 8,6.417512 v 5.671907 M 5.4830292,6.417512 5.8674903,12.089419 M 10.516971,6.417512 10.13251,12.089419"
         inkscape:label="holes non destruct" />
      <path
         style="fill:#000000;stroke:none;stroke-width:1.77122;paint-order:stroke fill markers"
         d="M 3,4 3.9094643,14.004107 A 1.0950328,1.0950328 42.402786 0 0 5,15 h 5.785253 a 1.3301876,1.3301876 137.59721 0 0 1.324725,-1.209758 L 13,4 Z"
         id="path2402"
         sodipodi:nodetypes="ccccc"
         inkscape:path-effect="#path-effect2406"
         inkscape:original-d="m 3,4 1,11 h 8 L 13,4 Z"
         inkscape:label="bod non destruct" />
    </g>
  </g>
</svg>
